<svg width="1440" height="1456" viewBox="0 0 1440 1456" fill="none" xmlns="http://www.w3.org/2000/svg">
<g filter="url(#filter0_f_50_8)">
<path d="M701.869 1055.21L671.853 886.018C1284.03 846.718 1751.48 642.823 1713.99 431.46L2204.03 400C2258.07 704.637 1584.19 998.569 701.869 1055.21Z" fill="url(#paint0_linear_50_8)"/>
</g>
<g filter="url(#filter1_f_50_8)">
<path d="M686.224 967.014L660.995 824.803C1175.41 791.779 1568.32 620.4 1536.81 442.789L1948.7 416.347C1994.12 672.395 1427.69 919.413 686.224 967.014Z" fill="url(#paint1_linear_50_8)"/>
</g>
<g filter="url(#filter2_f_50_8)">
<path d="M996.186 1036.27L966.169 867.078C353.995 906.378 -174.462 766.418 -211.959 555.055L-702 586.514C-647.955 891.151 113.861 1092.92 996.186 1036.27Z" fill="url(#paint2_linear_50_8)"/>
</g>
<g filter="url(#filter3_f_50_8)">
<path d="M701.869 1055.21L671.853 886.018C1284.03 846.718 1751.48 642.823 1713.99 431.46L2204.03 400C2258.07 704.637 1584.19 998.569 701.869 1055.21Z" fill="url(#paint3_linear_50_8)"/>
</g>
<g filter="url(#filter4_f_50_8)">
<path d="M686.224 967.014L660.995 824.803C1175.41 791.779 1568.32 620.4 1536.81 442.789L1948.7 416.347C1994.12 672.395 1427.69 919.413 686.224 967.014Z" fill="url(#paint4_linear_50_8)"/>
</g>
<g filter="url(#filter5_f_50_8)">
<path d="M996.186 1036.27L966.169 867.078C353.995 906.378 -174.462 766.418 -211.959 555.055L-702 586.514C-647.955 891.151 113.861 1092.92 996.186 1036.27Z" fill="url(#paint5_linear_50_8)"/>
</g>
<defs>
<filter id="filter0_f_50_8" x="271.853" y="0.000244141" width="2335.21" height="1455.21" filterUnits="userSpaceOnUse" color-interpolation-filters="sRGB">
<feFlood flood-opacity="0" result="BackgroundImageFix"/>
<feBlend mode="normal" in="SourceGraphic" in2="BackgroundImageFix" result="shape"/>
<feGaussianBlur stdDeviation="200" result="effect1_foregroundBlur_50_8"/>
</filter>
<filter id="filter1_f_50_8" x="260.995" y="16.3472" width="2090.25" height="1350.67" filterUnits="userSpaceOnUse" color-interpolation-filters="sRGB">
<feFlood flood-opacity="0" result="BackgroundImageFix"/>
<feBlend mode="normal" in="SourceGraphic" in2="BackgroundImageFix" result="shape"/>
<feGaussianBlur stdDeviation="200" result="effect1_foregroundBlur_50_8"/>
</filter>
<filter id="filter2_f_50_8" x="-1102" y="155.055" width="2498.19" height="1290.75" filterUnits="userSpaceOnUse" color-interpolation-filters="sRGB">
<feFlood flood-opacity="0" result="BackgroundImageFix"/>
<feBlend mode="normal" in="SourceGraphic" in2="BackgroundImageFix" result="shape"/>
<feGaussianBlur stdDeviation="200" result="effect1_foregroundBlur_50_8"/>
</filter>
<filter id="filter3_f_50_8" x="271.853" y="0.000244141" width="2335.21" height="1455.21" filterUnits="userSpaceOnUse" color-interpolation-filters="sRGB">
<feFlood flood-opacity="0" result="BackgroundImageFix"/>
<feBlend mode="normal" in="SourceGraphic" in2="BackgroundImageFix" result="shape"/>
<feGaussianBlur stdDeviation="200" result="effect1_foregroundBlur_50_8"/>
</filter>
<filter id="filter4_f_50_8" x="260.995" y="16.3472" width="2090.25" height="1350.67" filterUnits="userSpaceOnUse" color-interpolation-filters="sRGB">
<feFlood flood-opacity="0" result="BackgroundImageFix"/>
<feBlend mode="normal" in="SourceGraphic" in2="BackgroundImageFix" result="shape"/>
<feGaussianBlur stdDeviation="200" result="effect1_foregroundBlur_50_8"/>
</filter>
<filter id="filter5_f_50_8" x="-1102" y="155.055" width="2498.19" height="1290.75" filterUnits="userSpaceOnUse" color-interpolation-filters="sRGB">
<feFlood flood-opacity="0" result="BackgroundImageFix"/>
<feBlend mode="normal" in="SourceGraphic" in2="BackgroundImageFix" result="shape"/>
<feGaussianBlur stdDeviation="200" result="effect1_foregroundBlur_50_8"/>
</filter>
<linearGradient id="paint0_linear_50_8" x1="652.841" y1="778.954" x2="2221.89" y2="500.594" gradientUnits="userSpaceOnUse">
<stop stop-color="#9403FD"/>
<stop offset="1" stop-color="#00ADFE"/>
</linearGradient>
<linearGradient id="paint1_linear_50_8" x1="645.021" y1="734.863" x2="1963.65" y2="500.93" gradientUnits="userSpaceOnUse">
<stop stop-color="#9403FD"/>
<stop offset="1" stop-color="#00ADFE"/>
</linearGradient>
<linearGradient id="paint2_linear_50_8" x1="947.196" y1="760.007" x2="-621.855" y2="1038.37" gradientUnits="userSpaceOnUse">
<stop stop-color="#FF12DC"/>
<stop offset="1" stop-color="#FFB912"/>
</linearGradient>
<linearGradient id="paint3_linear_50_8" x1="652.841" y1="778.954" x2="2221.89" y2="500.594" gradientUnits="userSpaceOnUse">
<stop stop-color="#9403FD"/>
<stop offset="1" stop-color="#00ADFE"/>
</linearGradient>
<linearGradient id="paint4_linear_50_8" x1="645.021" y1="734.863" x2="1963.65" y2="500.93" gradientUnits="userSpaceOnUse">
<stop stop-color="#9403FD"/>
<stop offset="1" stop-color="#00ADFE"/>
</linearGradient>
<linearGradient id="paint5_linear_50_8" x1="947.196" y1="760.007" x2="-621.855" y2="1038.37" gradientUnits="userSpaceOnUse">
<stop stop-color="#FF12DC"/>
<stop offset="1" stop-color="#FFB912"/>
</linearGradient>
</defs>
</svg>
