<svg width="1920" height="1075" viewBox="0 0 1920 1075" fill="none" xmlns="http://www.w3.org/2000/svg">
<g clip-path="url(#clip0_22_146)">
<g filter="url(#filter0_f_22_146)">
<path d="M-49.4375 269C-137.108 269 -221.188 303.827 -283.18 365.82C-345.173 427.812 -380 511.892 -380 599.562C-380 687.233 -345.173 771.313 -283.18 833.305C-221.188 895.298 -137.108 930.125 -49.4375 930.125C38.2331 930.125 122.313 895.298 184.305 833.305C246.298 771.313 281.125 687.233 281.125 599.562C281.125 511.892 246.298 427.812 184.305 365.82C122.313 303.827 38.2331 269 -49.4375 269ZM134.065 618.59C129.998 623.941 124.36 627.887 117.94 629.877L66.0175 647.292C50.1512 652.715 35.711 661.644 23.77 673.415C11.9088 685.285 2.96635 699.747 -2.35251 715.663L-20.09 767.585C-22.4764 773.44 -26.3709 778.559 -31.3775 782.42C-36.732 786.299 -43.1493 788.438 -49.76 788.548C-56.4045 788.645 -62.8854 786.485 -68.1425 782.42C-73.5057 778.57 -77.5582 773.167 -79.7525 766.94L-96.845 715.017C-102.157 699.047 -111.138 684.544 -123.067 672.67C-134.997 660.797 -149.542 651.885 -165.538 646.647L-217.137 629.555C-223.364 627.361 -228.767 623.308 -232.617 617.945C-236.638 612.664 -238.793 606.199 -238.745 599.562C-238.702 592.841 -236.559 586.302 -232.617 580.858C-228.914 575.63 -223.584 571.774 -217.46 569.892L-165.538 552.478C-149.487 547.042 -134.84 538.121 -122.645 526.355C-110.713 514.293 -101.779 499.587 -96.5225 483.462L-79.1075 432.508C-77.1747 426.406 -73.47 421.017 -68.465 417.028C-63.3214 412.684 -56.8146 410.287 -50.0825 410.255C-43.6839 410.145 -37.3972 411.941 -32.0225 415.415C-26.3471 418.943 -22.0289 424.284 -19.7675 430.573L-2.35251 483.14C3.06549 499.362 12.0955 514.132 24.0925 526.355C36.2129 538.056 50.741 546.971 66.6625 552.478L118.585 570.538C124.755 572.504 130.091 576.477 133.742 581.825C137.506 587.217 139.532 593.631 139.548 600.208C139.515 606.722 137.613 613.107 134.065 618.59Z" fill="white"/>
</g>
<g clip-path="url(#clip1_22_146)">
<path fill-rule="evenodd" clip-rule="evenodd" d="M361.935 464.155C361.617 463.282 360.383 463.282 360.065 464.155L358.622 468.122L354.655 469.565C353.782 469.883 353.782 471.117 354.655 471.435L358.622 472.878L360.065 476.845C360.383 477.718 361.617 477.718 361.935 476.845L363.378 472.878L367.345 471.435C368.218 471.117 368.218 469.883 367.345 469.565L363.378 468.122L361.935 464.155Z" fill="#CCCCCC"/>
</g>
<g clip-path="url(#clip2_22_146)">
<path fill-rule="evenodd" clip-rule="evenodd" d="M145.402 770.482C144.925 769.173 143.074 769.173 142.597 770.482L140.433 776.433L134.482 778.597C133.173 779.074 133.173 780.925 134.482 781.402L140.433 783.567L142.597 789.517C143.074 790.827 144.925 790.827 145.402 789.517L147.567 783.567L153.517 781.402C154.827 780.925 154.827 779.074 153.517 778.597L147.567 776.433L145.402 770.482Z" fill="#CCCCCC"/>
</g>
<g clip-path="url(#clip3_22_146)">
<path fill-rule="evenodd" clip-rule="evenodd" d="M627.807 222.31C627.171 220.564 624.703 220.564 624.067 222.31L621.181 230.244L613.247 233.13C611.501 233.766 611.501 236.234 613.247 236.87L621.181 239.756L624.067 247.69C624.703 249.436 627.171 249.436 627.807 247.69L630.693 239.756L638.627 236.87C640.373 236.234 640.373 233.766 638.627 233.13L630.693 230.244L627.807 222.31Z" fill="#CCCCCC"/>
</g>
<g clip-path="url(#clip4_22_146)">
<path fill-rule="evenodd" clip-rule="evenodd" d="M131.056 130.829C130.696 129.843 129.302 129.843 128.943 130.829L127.312 135.312L122.829 136.943C121.843 137.302 121.843 138.696 122.829 139.056L127.312 140.686L128.943 145.169C129.302 146.155 130.696 146.155 131.056 145.169L132.686 140.686L137.169 139.056C138.155 138.696 138.155 137.302 137.169 136.943L132.686 135.312L131.056 130.829Z" fill="#CCCCCC"/>
</g>
<g clip-path="url(#clip5_22_146)">
<path fill-rule="evenodd" clip-rule="evenodd" d="M1830.87 397.31C1830.23 395.564 1827.77 395.564 1827.13 397.31L1824.24 405.244L1816.31 408.13C1814.56 408.766 1814.56 411.234 1816.31 411.87L1824.24 414.756L1827.13 422.69C1827.77 424.436 1830.23 424.436 1830.87 422.69L1833.76 414.756L1841.69 411.87C1843.44 411.234 1843.44 408.766 1841.69 408.13L1833.76 405.244L1830.87 397.31Z" fill="#CCCCCC"/>
</g>
<g clip-path="url(#clip6_22_146)">
<path fill-rule="evenodd" clip-rule="evenodd" d="M1308.78 205.655C1308.46 204.782 1307.22 204.782 1306.91 205.655L1305.46 209.622L1301.5 211.065C1300.62 211.383 1300.62 212.617 1301.5 212.935L1305.46 214.378L1306.91 218.345C1307.22 219.218 1308.46 219.218 1308.78 218.345L1310.22 214.378L1314.19 212.935C1315.06 212.617 1315.06 211.383 1314.19 211.065L1310.22 209.622L1308.78 205.655Z" fill="#CCCCCC"/>
</g>
<g clip-path="url(#clip7_22_146)">
<path fill-rule="evenodd" clip-rule="evenodd" d="M1660.93 898.655C1660.62 897.782 1659.38 897.782 1659.06 898.655L1657.62 902.622L1653.65 904.065C1652.78 904.383 1652.78 905.617 1653.65 905.935L1657.62 907.378L1659.06 911.345C1659.38 912.218 1660.62 912.218 1660.93 911.345L1662.38 907.378L1666.34 905.935C1667.22 905.617 1667.22 904.383 1666.34 904.065L1662.38 902.622L1660.93 898.655Z" fill="#CCCCCC"/>
</g>
</g>
<defs>
<filter id="filter0_f_22_146" x="-1004" y="-355" width="1909.12" height="1909.12" filterUnits="userSpaceOnUse" color-interpolation-filters="sRGB">
<feFlood flood-opacity="0" result="BackgroundImageFix"/>
<feBlend mode="normal" in="SourceGraphic" in2="BackgroundImageFix" result="shape"/>
<feGaussianBlur stdDeviation="312" result="effect1_foregroundBlur_22_146"/>
</filter>
<clipPath id="clip0_22_146">
<rect width="1920" height="1075" fill="white"/>
</clipPath>
<clipPath id="clip1_22_146">
<rect width="14" height="14" fill="white" transform="translate(354 463.5)"/>
</clipPath>
<clipPath id="clip2_22_146">
<rect width="21" height="21" fill="white" transform="translate(133.5 769.5)"/>
</clipPath>
<clipPath id="clip3_22_146">
<rect width="28" height="28" fill="white" transform="translate(611.938 221)"/>
</clipPath>
<clipPath id="clip4_22_146">
<rect width="15.82" height="15.82" fill="white" transform="translate(122.089 130.089)"/>
</clipPath>
<clipPath id="clip5_22_146">
<rect width="28" height="28" fill="white" transform="translate(1815 396)"/>
</clipPath>
<clipPath id="clip6_22_146">
<rect width="14" height="14" fill="white" transform="translate(1300.84 205)"/>
</clipPath>
<clipPath id="clip7_22_146">
<rect width="14" height="14" fill="white" transform="translate(1653 898)"/>
</clipPath>
</defs>
</svg>
